<svg width="240" height="34" viewBox="0 0 240 34" fill="none" xmlns="http://www.w3.org/2000/svg">
<g id="Logotyp/F&#195;&#182;retagarna">
<path id="Combined Shape" fill-rule="evenodd" clip-rule="evenodd" d="M12.788 11.9262V7.98597H7.3725V6.98037C7.3725 4.9467 8.2703 4.05335 9.99152 4.05335C10.9841 4.05335 11.7863 4.23846 12.7097 4.53794L12.8267 4.57606L12.7628 0.531184C11.7119 0.227892 10.5818 0 8.94713 0C4.87135 0 2.59162 2.18954 2.59162 6.60294V7.94827H0V11.9262H2.59162V27.8977H7.44949V11.9262H12.788ZM24.5503 5.48424H19.6146V0.866245H24.5503V5.48424ZM88.393 23.996C86.851 23.996 85.9675 23.3149 85.9675 21.596V11.9262H91.4596V7.83517H85.9675V2.37381H81.1088V7.83517H78.5167V11.9262H81.1088V22.3114C81.1088 26.7371 83.5938 28.2366 87.0776 28.2366C88.8323 28.2366 90.1625 27.8562 91.3826 27.1836V23.2636L91.2538 23.3268C90.3378 23.7732 89.4226 23.996 88.393 23.996ZM187.758 12.6395C188.359 12.1101 188.877 11.6661 189.72 11.165C189.72 11.165 188.002 12.6963 187.579 13.172C187.156 13.6481 187.406 13.7561 187.738 13.4617C187.829 13.3809 187.933 13.2857 188.048 13.181C188.508 12.7609 189.136 12.1877 189.721 11.7775C189.861 11.679 190.01 11.5715 190.164 11.4602C190.965 10.8798 191.908 10.1977 192.556 10.1679C192.796 10.1573 192.893 10.2895 192.904 10.5237C192.916 10.7728 192.822 11.1244 192.672 11.5124C192.456 12.1049 191.418 14.8061 190.298 17.7246L190.296 17.7297L190.293 17.7359L190.292 17.7386C188.834 21.5367 187.236 25.6975 187.122 26.0551C186.881 26.7884 187.239 27.2399 187.761 27.4974C188.274 27.7491 188.952 27.8223 189.407 27.8223C190.219 27.8223 190.863 27.6245 191.187 26.9955C193.636 21.9814 196.083 17.5087 198.776 14.1086C201.082 11.2773 203.207 9.80911 204.005 9.80911C204.525 9.80911 204.616 10.1209 204.616 10.5495C204.616 11.3107 204.225 12.4629 203.824 13.4393C202.624 16.3104 200.924 20.3506 199.625 23.2721C198.926 24.8771 198.718 25.5735 198.718 26.1784C198.718 26.9074 199.558 27.8223 200.506 27.8223C204.178 27.8223 208.333 24.2608 210.211 21.6786C210.953 20.7149 211.602 19.7576 211.51 19.7436C211.436 19.7323 210.898 20.2754 210.564 20.6129C210.504 20.6734 210.451 20.7274 210.408 20.7703L210.348 20.8293C210.586 20.4629 211.122 19.633 211.478 19.0735C211.783 18.5944 212.872 16.8742 211.775 18.1645C211.665 18.2941 211.312 18.6691 210.856 19.1544C210.242 19.8074 209.44 20.6604 208.788 21.3842C207.361 22.8422 205.297 24.2913 204.606 24.2913C204.456 24.2913 204.406 24.2324 204.401 24.107C204.395 23.9571 204.463 23.7288 204.589 23.4369C204.888 22.7081 205.411 21.5099 205.995 20.1705C206.974 17.9271 208.126 15.2875 208.69 13.7934C209.191 12.5226 209.594 10.8575 209.594 9.91713C209.594 8.51419 208.764 7.10448 206.506 7.10448C202.163 7.10448 197.548 12.87 194.388 17.1821L197.39 9.75531C197.846 8.66922 197.71 7.10448 195.807 7.10448C192.367 7.10448 188.898 9.78454 187.273 12.3307C187.101 12.5997 186.924 13.3749 187.758 12.6395ZM187.286 13.7311C187.524 13.8862 186.479 14.7905 186.388 14.7308C186.289 14.6664 187.049 13.5765 187.286 13.7311ZM213.474 16.7179C213.697 16.6416 211.95 19.603 211.686 19.4598C211.422 19.3166 213.252 16.795 213.474 16.7179ZM240 16.3879C239.682 17.0483 238.232 18.8812 237.992 18.7037C237.751 18.5258 239.465 16.6048 240 16.3879ZM223.025 12.0715C220.234 15.032 217.648 20.5116 217.548 23.6995C217.548 24.2392 217.748 24.5853 218.06 24.5853C218.813 24.5853 220.878 22.8769 223.097 20.7174C225.574 18.1589 227.859 13.8612 228.565 11.625C228.173 10.5059 227.409 10.0065 226.459 10.0065C225.399 10.0065 224.621 10.4195 223.025 12.0715ZM225.854 19.7127C222.355 24.2904 217.385 27.8257 214.46 27.8257C212.799 27.8257 211.672 26.4118 211.672 24.8178C211.672 22.89 213.687 17.9514 217.543 13.7083C219.801 11.2658 222.111 9.75023 223.817 8.86958C225.328 8.08552 226.541 7.76994 227.759 7.78858C228.939 7.80592 229.566 8.54132 229.892 8.92357L229.938 8.97845L231.192 6.35048C231.433 6.2323 231.848 6.13276 232.259 6.13276C233.208 6.13276 234.661 6.42334 235.138 7.34931C233.739 10.586 230.431 18.8947 228.583 23.9554C228.336 24.5789 228.555 24.7149 228.748 24.7149C229.099 24.7149 229.793 24.4624 230.673 23.902C232.442 22.7757 234.504 21.1931 237.596 18.1822C238.012 17.7764 237.421 19.0078 235.676 20.6293C235.861 20.4882 236.045 20.3432 236.223 20.2035C236.749 19.7889 237.215 19.4222 237.453 19.3497C238.003 19.1828 234.702 22.9299 231.689 25.1685C230.323 26.1839 227.78 27.8257 225.36 27.8257C224.094 27.8257 223.62 26.7947 223.62 26.1818C223.62 25.6785 223.776 25.1283 224.126 24.1549L225.854 19.7127ZM176.729 12.2803L174.815 18.0264L174.842 17.9792C176.332 15.3197 178.334 11.7491 179.575 10.2509C181.173 8.30621 182.548 7.10236 184.094 7.10236C185.768 7.10236 186.483 8.53283 186.483 9.91501C186.483 11.4268 185.33 13.8968 183.694 13.8968C183.011 13.8968 182.803 13.2707 182.607 12.4163C182.405 11.4298 182.107 10.7613 181.688 10.7613C181.149 10.7613 180.025 11.772 178.365 14.4686C176.792 16.9525 175.042 20.9337 173.291 24.9192C172.986 25.6117 172.682 26.3046 172.378 26.9896C172.104 27.6262 171.401 27.8206 170.596 27.8206C169.645 27.8206 167.719 27.5423 168.211 26.0526C168.534 25.1232 168.978 23.8827 169.479 22.4817C170.684 19.1138 172.221 14.8188 173.21 11.6911C173.472 10.874 173.364 10.5364 172.995 10.5364C171.942 10.5364 170.368 11.8631 169.163 13.2334C168.799 13.6367 168.456 14.0547 168.159 14.417C167.706 14.9704 167.359 15.3937 167.202 15.4357C166.969 15.4982 167.796 13.9593 168.325 12.975L168.49 12.6684C168.49 12.6684 167.479 13.6329 167.499 13.4791C167.533 13.2058 167.973 12.5767 168.349 12.0376C168.402 11.9617 168.454 11.8876 168.503 11.8165C169.966 9.70491 172.547 7.10787 175.194 7.10236C178.035 7.09643 177.511 10.0895 176.729 12.2803ZM122.559 16.8496C122.559 13.5871 125.068 11.4361 128.272 11.4361C131.481 11.4361 134.18 13.5897 134.18 16.8877C134.18 20.1092 131.481 22.3008 128.272 22.3008C125.107 22.3008 122.559 20.1126 122.559 16.8496ZM118.711 31.6148C121.357 33.1676 124.506 34 127.886 34C134.967 34 138.96 30.8421 138.96 23.7432V7.83517H134.103V10.6626C132.521 8.88314 130.399 7.4209 127.035 7.4209C122.232 7.4209 117.662 10.9219 117.662 16.8877C117.662 22.8532 122.194 26.3156 127.035 26.3156C130.331 26.3156 132.453 24.8822 134.141 22.8257V24.1197C134.141 28.0625 131.901 30.1356 127.771 30.1356C125.004 30.1356 122.7 29.3507 120.461 27.9888L118.711 31.6148ZM104.017 18.669C105.796 18.669 107.425 18.9955 108.608 19.4331V20.6162C108.608 23.0362 106.35 24.7111 103.282 24.7111C101.097 24.7111 99.4254 23.6716 99.4254 21.7845C99.4254 19.8237 101.094 18.669 104.017 18.669ZM108.493 25.5955V27.8977H113.313V16.0211C113.313 10.6605 110.331 7.534 104.249 7.534C100.908 7.534 98.6907 8.21556 96.3636 9.23133L97.7842 13.0115C99.6346 12.2613 101.324 11.775 103.592 11.775C106.804 11.775 108.532 13.2542 108.532 15.9457V16.3176C106.976 15.8444 105.399 15.52 102.972 15.52C98.1918 15.52 94.6058 17.6464 94.6058 22.0852C94.6058 26.1432 98.0695 28.3124 101.967 28.3124C104.976 28.3124 107.084 27.1459 108.493 25.5955ZM70.7775 16.3862C70.443 13.5215 68.6935 11.323 65.693 11.323C62.9179 11.323 60.9456 13.38 60.4959 16.3862H70.7775ZM66.312 24.4476C68.5657 24.4476 70.169 23.6322 71.7815 22.0988L74.7137 24.5251C72.708 26.868 70.0146 28.3501 66.2341 28.3501C60.2684 28.3501 55.6632 24.1303 55.6632 17.9044C55.6632 12.1384 59.8343 7.4209 65.7317 7.4209C72.2956 7.4209 75.6076 12.4498 75.6076 18.2437C75.6076 18.6058 75.5779 18.9399 75.5441 19.3205L75.5288 19.4937L60.5376 19.5729C61.1031 22.7083 63.3702 24.4476 66.312 24.4476ZM25.8927 11.5865C22.198 11.5865 19.8308 14.4021 19.8308 17.8667C19.8308 21.3668 22.3898 24.2218 25.9697 24.2218C29.7036 24.2218 32.0699 21.4058 32.0699 17.9416C32.0699 14.4419 29.5117 11.5865 25.8927 11.5865ZM25.8927 28.3501C19.6159 28.3501 14.9729 23.6783 14.9729 17.9416C14.9729 12.1685 19.6542 7.4209 25.9697 7.4209C32.2852 7.4209 36.9286 12.0923 36.9286 17.8667C36.9286 23.6029 32.2465 28.3501 25.8927 28.3501ZM46.369 27.8977H41.5107V7.83517H46.369V11.9923C47.6913 9.19914 50.0289 7.31204 53.5179 7.45902L53.6023 12.4532H53.243C49.199 12.4532 46.369 15.0062 46.369 20.2401V27.8977ZM27.3125 5.48424H32.2482V0.866245H27.3125V5.48424ZM153.607 12.0669C150.818 15.0265 148.23 20.5069 148.132 23.694C148.132 24.2341 148.332 24.5806 148.641 24.5806C149.395 24.5806 151.46 22.8727 153.677 20.7124C156.158 18.1534 158.443 13.8561 159.148 11.62C158.756 10.5008 157.991 10.0018 157.041 10.0018C155.98 10.0018 155.205 10.4144 153.607 12.0669ZM156.438 19.7029C152.942 24.2832 147.968 27.8206 145.042 27.8206C143.383 27.8206 142.254 26.4067 142.254 24.8136C142.254 22.885 144.269 17.9467 148.126 13.7036C150.383 11.2608 152.692 9.74472 154.4 8.8645C155.91 8.08086 157.124 7.7602 158.341 7.78349C159.464 7.8051 160.211 8.61204 160.521 8.97252L161.773 6.3454C162.016 6.22764 162.429 6.1281 162.842 6.1281C163.79 6.1281 165.245 6.41784 165.72 7.34381C164.322 10.5809 160.933 18.9608 159.084 24.0215C158.839 24.6454 159.057 24.781 159.251 24.781C159.77 24.781 161.006 24.1947 162.516 23.051C163.604 22.1576 165.586 20.3781 166.108 19.8783C166.681 19.3285 168.288 17.5358 168.417 17.6066C168.547 17.6773 166.317 20.4832 166.117 20.8877C166.871 20.2697 168.557 18.1403 168.423 18.4932C168.29 18.846 166.571 21.0546 165.955 21.7129C164.589 23.1717 163.471 24.1816 162.553 24.8936C161.91 25.4223 161.039 26.0975 160.265 26.5168C160.097 26.6079 159.952 26.6914 159.834 26.7634C158.531 27.4136 157.185 27.8206 155.941 27.8206C154.676 27.8206 154.203 26.7905 154.203 26.1767C154.203 25.6739 154.358 25.1228 154.708 24.1502L156.438 19.7029Z" fill="#333333"/>
</g>
</svg>
