<svg width="104" height="30" viewBox="0 0 104 30" fill="none" xmlns="http://www.w3.org/2000/svg">
<g clip-path="url(#clip0_1430_3085)">
<path d="M2.04685 13.0986C3.09306 13.0175 3.87547 12.1037 3.79442 11.0575C3.71336 10.0113 2.79954 9.22889 1.75334 9.30994C0.707129 9.39099 -0.0752825 10.3048 0.00576977 11.351C0.086822 12.3972 1.00065 13.1796 2.04685 13.0986Z" fill="#B239E8"/>
<path d="M12.4041 12.5406C15.8622 12.2812 18.4552 9.2676 18.1958 5.80955C17.9364 2.35149 14.9228 -0.241521 11.4647 0.0178846C8.00667 0.27729 5.41365 3.29088 5.67306 6.74894C5.93246 10.207 8.94606 12.8 12.4041 12.5406Z" fill="#B239E8"/>
<path d="M8.78763 20.7687C10.5288 20.7687 11.9403 19.3572 11.9403 17.6161C11.9403 15.8749 10.5288 14.4634 8.78763 14.4634C7.04647 14.4634 5.63499 15.8749 5.63499 17.6161C5.63499 19.3572 7.04647 20.7687 8.78763 20.7687Z" fill="#B239E8"/>
<path d="M81.6409 11.5684L70.1883 30H66.2672L70.0304 24.1263L67.3198 11.5684H71.6093L72.9777 19.4421L77.4777 11.5684H81.6409Z" fill="white"/>
<path d="M56.9673 13.5947C57.4778 12.9789 58.1251 12.4631 58.9146 12.042C59.7251 11.6052 60.6357 11.3842 61.6515 11.3842C62.7567 11.3842 63.6883 11.6631 64.4409 12.2263C65.1936 12.7684 65.7146 13.5526 65.9936 14.5684C66.2936 15.5684 66.2988 16.7631 66.0199 18.1473C65.7567 19.5157 65.2725 20.7105 64.5725 21.7263C63.8883 22.742 63.0515 23.5368 62.0725 24.0947C61.0883 24.6368 60.0462 24.9105 58.9409 24.9105C58.0988 24.9105 57.3673 24.7368 56.7567 24.3842C56.1409 24.0157 55.7146 23.5789 55.4672 23.0684L54.9146 24.7263H51.4409L55.2041 5.76836H59.0462L57.4936 13.6157L56.9673 13.5894V13.5947ZM61.8936 18.1526C62.1041 17.1894 62.0251 16.4052 61.6567 15.8105C61.2883 15.2157 60.6988 14.9157 59.8936 14.9157C59.4199 14.9157 58.9462 15.0473 58.4725 15.3105C58.0146 15.5578 57.6199 15.9157 57.2883 16.3894C56.9567 16.8631 56.7199 17.4526 56.5778 18.1526C56.4567 18.8526 56.462 19.442 56.6041 19.9157C56.7462 20.3894 56.9883 20.7473 57.3409 20.9947C57.6936 21.242 58.1199 21.3631 58.6304 21.3631C59.1409 21.3631 59.6409 21.2315 60.0778 20.9684C60.5357 20.6894 60.9199 20.3105 61.2357 19.8368C61.5515 19.3473 61.7725 18.7842 61.8936 18.1526Z" fill="white"/>
<path d="M43.0092 24.921C41.7303 24.921 40.6303 24.6473 39.7198 24.1052C38.825 23.5631 38.1829 22.7789 37.7987 21.7631C37.4303 20.7473 37.3777 19.542 37.6408 18.1578C37.9198 16.7736 38.4566 15.5789 39.2461 14.5789C40.0356 13.5631 40.9935 12.7789 42.1145 12.2368C43.2566 11.6736 44.4671 11.3946 45.7461 11.3946C47.025 11.3946 48.1513 11.6736 49.0619 12.2368C49.9724 12.7789 50.625 13.5631 51.0092 14.5789C51.4145 15.5789 51.4829 16.7736 51.2198 18.1578C50.9408 19.542 50.3935 20.7473 49.5882 21.7631C48.7829 22.7789 47.7987 23.5631 46.6408 24.1052C45.4987 24.6473 44.2882 24.921 43.0092 24.921ZM43.6671 21.442C44.1408 21.442 44.604 21.321 45.0619 21.0736C45.5356 20.8262 45.9461 20.4683 46.2987 19.9946C46.6671 19.5052 46.9198 18.8894 47.0619 18.1525C47.204 17.4157 47.1935 16.8104 47.0356 16.3368C46.8935 15.8473 46.6408 15.4789 46.2724 15.2315C45.9198 14.9841 45.5092 14.8631 45.0356 14.8631C44.5619 14.8631 44.125 14.9841 43.6671 15.2315C43.2303 15.4789 42.8408 15.8473 42.5092 16.3368C42.1777 16.8104 41.9303 17.4157 41.7724 18.1525C41.6303 18.8894 41.6303 19.5052 41.7724 19.9946C41.9145 20.4683 42.1513 20.8262 42.4829 21.0736C42.8145 21.321 43.2092 21.442 43.6671 21.442Z" fill="white"/>
<path d="M34.7198 5.77363H38.5619L34.7987 24.7315H30.9566L34.7198 5.77363Z" fill="white"/>
<path d="M27.9619 11.5683H31.4356L29.1988 22.8367C28.8988 24.3262 28.2777 25.5999 27.3303 26.6525C26.3988 27.721 25.1777 28.5473 23.6724 29.1262C22.1619 29.7052 20.4093 29.9946 18.404 29.9946L18.483 26.8104C20.4672 26.7946 22.0356 26.4578 23.1935 25.8104C24.3672 25.1789 25.083 24.2578 25.3251 23.0473V22.9946L25.9567 22.6789C25.4461 23.2736 24.7882 23.7999 23.983 24.2578C23.1777 24.6946 22.2619 24.9157 21.2461 24.9157C20.1409 24.9157 19.1988 24.642 18.4303 24.0999C17.6777 23.5367 17.1514 22.7473 16.8514 21.7315C16.5724 20.7157 16.5619 19.521 16.8251 18.1525C17.104 16.7683 17.5988 15.5736 18.2988 14.5736C18.9988 13.5578 19.8356 12.7736 20.7988 12.2315C21.783 11.6683 22.8356 11.3894 23.9567 11.3894C24.5198 11.3894 25.0251 11.4789 25.483 11.6525C25.9566 11.8104 26.3514 12.0315 26.6672 12.3104C26.9988 12.5736 27.2461 12.8789 27.404 13.2315L27.9566 11.5736L27.9619 11.5683ZM20.9567 18.1525C20.7619 19.1157 20.8514 19.8999 21.2198 20.4946C21.604 21.0894 22.204 21.3894 23.0093 21.3894C23.4672 21.3894 23.9198 21.2578 24.3777 20.9946C24.8356 20.7315 25.2303 20.3631 25.5619 19.8894C25.9145 19.3999 26.1566 18.821 26.2988 18.1525C26.4198 17.4525 26.404 16.8631 26.2461 16.3894C26.104 15.9157 25.8619 15.5578 25.5093 15.3104C25.1566 15.0631 24.7566 14.942 24.2988 14.942C23.7566 14.942 23.2567 15.0841 22.7988 15.3631C22.3409 15.6262 21.9566 15.9946 21.6409 16.4683C21.3251 16.942 21.0988 17.5052 20.9567 18.1525Z" fill="white"/>
<path d="M90.3513 24.1946L90.4039 22.5894C89.8618 23.1315 89.2829 23.5631 88.6671 23.8788C88.0513 24.1946 87.2829 24.3525 86.3513 24.3525C85.4724 24.3525 84.7355 24.2052 84.1408 23.9052C83.546 23.5894 83.1145 23.1578 82.8513 22.6157C82.5881 22.0525 82.5355 21.3946 82.6934 20.642C82.9039 19.5367 83.4829 18.6262 84.4302 17.9052C85.3776 17.1683 86.6776 16.7052 88.325 16.5104L91.6934 16.142L91.8776 15.2209C91.946 14.8525 91.8408 14.5104 91.5618 14.1946C91.2987 13.8788 90.8145 13.7209 90.1145 13.7209C89.4829 13.7209 88.9039 13.8788 88.3776 14.1946C87.8513 14.4946 87.446 14.9473 87.1671 15.5631L84.4566 14.5104C85.0513 13.3367 85.9039 12.4315 87.0092 11.7999C88.1145 11.1683 89.3881 10.8525 90.825 10.8525C92.5776 10.8525 93.8145 11.2894 94.5355 12.1683C95.2566 13.0262 95.4724 14.1683 95.1934 15.5894L93.4566 24.1946H90.3513ZM91.2197 18.4841L88.325 18.8525C87.7302 18.9209 87.246 19.0999 86.8776 19.3788C86.525 19.642 86.3145 19.9683 86.246 20.3525C86.1566 20.7209 86.246 21.0367 86.5092 21.2999C86.7723 21.5473 87.1671 21.6683 87.6934 21.6683C88.3092 21.6683 88.8513 21.5525 89.325 21.3262C89.8145 21.0999 90.2092 20.7631 90.5092 20.3262C90.825 19.8894 91.0513 19.342 91.1934 18.6946L91.2197 18.4841Z" fill="white"/>
<path d="M98.6145 11.0368H101.983L99.3776 24.1947H96.0092L98.6145 11.0368ZM100.667 9.35258C100.036 9.35258 99.5513 9.15784 99.2197 8.77363C98.9039 8.36837 98.7987 7.87889 98.9039 7.29995C99.025 6.721 99.325 6.23679 99.7987 5.85258C100.288 5.44731 100.851 5.24731 101.483 5.24731C102.114 5.24731 102.562 5.44731 102.878 5.85258C103.209 6.23679 103.314 6.721 103.193 7.29995C103.088 7.87889 102.788 8.36837 102.299 8.77363C101.809 9.15784 101.262 9.35258 100.667 9.35258Z" fill="white"/>
<path d="M79.1883 24.3156C78.783 24.3156 78.4777 24.1841 78.2619 23.9262C78.0462 23.6683 77.983 23.3472 78.0619 22.9683C78.1409 22.5893 78.3356 22.2683 78.6514 22.0104C78.9672 21.742 79.3304 21.6051 79.7461 21.6051C80.1409 21.6051 80.4409 21.742 80.6567 22.0104C80.883 22.2683 80.9514 22.5893 80.8777 22.9683C80.8093 23.3525 80.6146 23.6683 80.2882 23.9262C79.9619 24.1841 79.5988 24.3156 79.1935 24.3156H79.1883Z" fill="white"/>
</g>
<defs>
<clipPath id="clip0_1430_3085">
<rect width="103.242" height="30" fill="white"/>
</clipPath>
</defs>
</svg>
