<svg width="24" height="24" viewBox="0 0 24 24" fill="none" xmlns="http://www.w3.org/2000/svg">
<path d="M16 21V5C16 4.46957 15.7893 3.96086 15.4142 3.58579C15.0392 3.21071 14.5305 3 14 3H10C9.4696 3 8.96089 3.21071 8.58582 3.58579C8.21074 3.96086 8.00003 4.46957 8.00003 5V21M4.00003 6.99998H20C21.1046 6.99998 22 7.89541 22 8.99998V19C22 20.1046 21.1046 21 20 21H4.00003C2.89546 21 2.00003 20.1046 2.00003 19V8.99998C2.00003 7.89541 2.89546 6.99998 4.00003 6.99998Z" stroke="#F2F2F2" stroke-width="1.5" stroke-linecap="round" stroke-linejoin="round"/>
</svg>
