<svg width="16" height="16" viewBox="0 0 16 16" fill="none" xmlns="http://www.w3.org/2000/svg">
<g clip-path="url(#clip0_679_2623)">
<path d="M12.2587 3.07267L12.245 11.4424C12.2433 12.4678 11.8344 13.4537 11.1082 14.1832C10.382 14.9127 9.39796 15.3261 8.37262 15.3325C7.34728 15.3388 6.3646 14.9376 5.64076 14.2171C4.91692 13.4965 4.51121 12.5157 4.51288 11.4903L4.52656 3.12054C4.52768 2.43697 4.80029 1.77971 5.28443 1.29336C5.76857 0.80701 6.42458 0.531401 7.10814 0.527169C7.7917 0.522936 8.44682 0.790425 8.92939 1.27079C9.41195 1.75116 9.68242 2.40505 9.6813 3.08862L9.66306 11.463C9.6625 11.8048 9.5262 12.1334 9.28413 12.3766C9.04206 12.6197 8.71405 12.7575 8.37227 12.7597C8.03049 12.7618 7.70293 12.628 7.46165 12.3879C7.22037 12.1477 7.08513 11.8207 7.08569 11.4789L7.10287 3.75122" stroke="#F2F2F2" stroke-linecap="round" stroke-linejoin="round"/>
</g>
<defs>
<clipPath id="clip0_679_2623">
<rect width="16" height="16" fill="white"/>
</clipPath>
</defs>
</svg>
