<svg width="16" height="16" viewBox="0 0 16 16" fill="none" xmlns="http://www.w3.org/2000/svg">
<g clip-path="url(#clip0_824_1909)">
<path d="M6.05995 5.99989C6.21669 5.55434 6.52605 5.17863 6.93325 4.93931C7.34045 4.7 7.81921 4.61252 8.28473 4.69237C8.75025 4.77222 9.17249 5.01424 9.47667 5.37558C9.78084 5.73691 9.94732 6.19424 9.94662 6.66656C9.94662 7.99989 7.94662 8.66656 7.94662 8.66656M7.99998 11.3333H8.00665M14.6666 7.99992C14.6666 11.6818 11.6819 14.6666 7.99998 14.6666C4.31808 14.6666 1.33331 11.6818 1.33331 7.99992C1.33331 4.31802 4.31808 1.33325 7.99998 1.33325C11.6819 1.33325 14.6666 4.31802 14.6666 7.99992Z" stroke="#B2B2B2" stroke-linecap="round" stroke-linejoin="round"/>
</g>
<defs>
<clipPath id="clip0_824_1909">
<rect width="16" height="16" fill="white"/>
</clipPath>
</defs>
</svg>
