<svg width="13" height="14" viewBox="0 0 13 14" fill="none" xmlns="http://www.w3.org/2000/svg">
<path d="M11.5 8.38462V6.76923C11.5 6.2184 11.2629 5.69012 10.841 5.30062C10.419 4.91113 9.84674 4.69231 9.25 4.69231H8.25C8.05109 4.69231 7.86032 4.61937 7.71967 4.48954C7.57902 4.3597 7.5 4.18361 7.5 4V3.07692C7.5 2.52609 7.26295 1.99782 6.84099 1.60832C6.41903 1.21882 5.84674 1 5.25 1H4M5.5 1H2.25C1.836 1 1.5 1.31015 1.5 1.69231V12.3077C1.5 12.6898 1.836 13 2.25 13H10.75C11.164 13 11.5 12.6898 11.5 12.3077V6.53846C11.5 5.06957 10.8679 3.66084 9.74264 2.62218C8.61742 1.58351 7.0913 1 5.5 1Z" stroke="white" stroke-width="1.1999" stroke-linecap="round" stroke-linejoin="round"/>
</svg>
