<svg width="12" height="12" viewBox="0 0 12 12" fill="none" xmlns="http://www.w3.org/2000/svg">
<path d="M7.32848 4.46171L7.16073 9.07698M4.83927 9.07698L4.67152 4.46171M9.50449 2.8156C9.6703 2.84227 9.83515 2.87047 10 2.90073M9.50449 2.8156L8.98667 9.9349C8.96553 10.2248 8.84173 10.4955 8.64001 10.693C8.43829 10.8904 8.17353 11.0001 7.89867 11H4.10133C3.82647 11.0001 3.56171 10.8904 3.35999 10.693C3.15827 10.4955 3.03447 10.2248 3.01333 9.9349L2.49552 2.8156M9.50449 2.8156C8.94491 2.72613 8.38243 2.65822 7.81818 2.61202M2.49552 2.8156C2.3297 2.84176 2.16485 2.86996 2 2.90022M2.49552 2.8156C3.05509 2.72613 3.61757 2.65822 4.18182 2.61202M7.81818 2.61202V2.14229C7.81818 1.53718 7.37697 1.03257 6.80485 1.0136C6.26842 0.995467 5.73158 0.995467 5.19515 1.0136C4.62303 1.03257 4.18182 1.53769 4.18182 2.14229V2.61202M7.81818 2.61202C6.60787 2.51309 5.39213 2.51309 4.18182 2.61202" stroke="#EC4F49" stroke-linecap="round" stroke-linejoin="round"/>
</svg>
